<svg width="39" height="33" viewBox="0 0 39 33" fill="none" xmlns="http://www.w3.org/2000/svg">
<path d="M24.4976 25.4892C22.4292 25.4892 20.7465 27.172 20.7465 29.2403C20.7465 31.3087 22.4293 32.9914 24.4976 32.9914C26.566 32.9914 28.2487 31.3087 28.2487 29.2403C28.2487 27.172 26.566 25.4892 24.4976 25.4892ZM24.4976 30.7408C23.6701 30.7408 22.9972 30.0678 22.9972 29.2403C22.9972 28.4128 23.6701 27.7399 24.4976 27.7399C25.3251 27.7399 25.9981 28.4128 25.9981 29.2403C25.9981 30.0678 25.3251 30.7408 24.4976 30.7408Z" fill="black"/>
<path d="M30.5227 10.9915C30.3097 10.7188 29.9829 10.5597 29.6367 10.5597H7.62435L6.61153 6.32208C6.49038 5.8157 6.03759 5.45822 5.51693 5.45822H1.80331C1.18177 5.45816 0.677979 5.96195 0.677979 6.5835C0.677979 7.20504 1.18177 7.70883 1.80331 7.70883H4.62869L8.28602 23.0119C8.40718 23.5187 8.85997 23.8758 9.38062 23.8758H26.8984C27.4157 23.8758 27.8666 23.5232 27.9907 23.0213L30.7291 11.9554C30.8119 11.6194 30.7358 11.2642 30.5227 10.9915ZM26.018 21.6252H10.2689L8.16222 12.8104H28.1989L26.018 21.6252Z" fill="black"/>
<path d="M10.8811 25.4892C8.81272 25.4892 7.13 27.172 7.13 29.2403C7.13 31.3087 8.81277 32.9914 10.8811 32.9914C12.9495 32.9914 14.6322 31.3087 14.6322 29.2403C14.6322 27.172 12.9495 25.4892 10.8811 25.4892ZM10.8811 30.7408C10.0536 30.7408 9.38067 30.0678 9.38067 29.2403C9.38067 28.4128 10.0536 27.7399 10.8811 27.7399C11.7086 27.7399 12.3816 28.4128 12.3816 29.2403C12.3816 30.0678 11.7086 30.7408 10.8811 30.7408Z" fill="black"/>
<circle cx="30.7619" cy="8.49553" r="7.66561" fill="#E68A3F"/>
<path d="M28.8008 6.2392C29.6288 6.2392 30.1208 6.1072 30.5648 5.6752V12.1192H32.1488V3.7192H30.6608C30.2888 4.4392 29.7248 4.7752 28.8008 4.7752V6.2392Z" fill="white"/>
</svg>
