<svg width="218" height="58" viewBox="0 0 218 58" fill="none" xmlns="http://www.w3.org/2000/svg">
<g clip-path="url(#clip0_373_10)">
<path d="M8.31142 44.9604V57.4089H5.21001V44.9604H8.31142Z" fill="#F58025"/>
<path d="M31.8916 44.9604H34.9415L37.6397 49.546C38.6263 51.2919 38.9266 51.8538 39.51 52.9477L39.3684 44.9604H42.3497V57.4089H39.2998L36.9705 53.4753C35.8423 51.6222 35.6321 51.2361 34.7828 49.5803L34.8729 57.4089H31.8916V44.9604Z" fill="#F58025"/>
<path d="M67.2554 53.6726C67.5728 54.0244 67.8388 54.3075 68.4565 54.6421C69.2844 55.0839 70.1294 55.2426 70.8544 55.2426C72.0898 55.2426 73.1451 54.6592 73.1451 53.797C73.1451 52.8104 71.8925 52.6517 70.9745 52.5273C70.2882 52.4372 69.5975 52.3514 68.9283 52.2098C68.1691 52.0511 65.5781 51.5063 65.5781 48.8253C65.5781 45.6167 68.435 44.6644 70.5841 44.6644C73.4582 44.6644 75.011 46.0585 76.0877 47.028L73.7971 48.6666C73.411 48.2805 73.055 47.9459 72.5617 47.6628C72.1198 47.414 71.3262 47.118 70.5327 47.118C69.2972 47.118 68.6795 47.8215 68.6795 48.4221C68.6795 49.3744 69.7391 49.5159 70.2667 49.5846C71.5879 49.7433 73.3681 50.0779 74.0759 50.3267C75.5044 50.8543 76.2293 51.9653 76.2293 53.3766C76.2293 54.2775 75.8947 55.2641 75.2427 56.0233C74.1145 57.3274 72.3172 57.6963 70.5713 57.6963C67.0623 57.6963 65.6682 56.0748 64.8918 55.174L67.2554 53.6769V53.6726Z" fill="#F58025"/>
<path d="M104.961 57.7607C101.011 57.7607 98.7714 54.7279 98.7714 51.1289C98.7714 47.7615 100.903 44.57 104.91 44.57C105.652 44.57 106.428 44.6772 107.183 44.9389C110.993 46.2601 111.237 50.4039 111.237 51.2533C111.237 53.4067 110.25 55.3456 108.873 56.4566C107.655 57.4604 106.248 57.7607 104.957 57.7607H104.961ZM107.11 48.0789C106.583 47.5127 105.772 47.161 104.923 47.161C103.035 47.161 101.838 48.8168 101.838 51.0731C101.838 54.0372 103.494 55.1311 104.961 55.1311C106.428 55.1311 108.028 54.0716 108.119 51.4635C108.17 50.1594 107.818 48.8382 107.115 48.0789H107.11Z" fill="#F58025"/>
<path d="M134.358 44.9432H137.464V54.7836H142.333V57.4089H134.363V44.9432H134.358Z" fill="#F58025"/>
<path d="M165.081 44.9604H174.286V47.3754H168.186V49.6318H173.883V51.9954H168.186V54.9595H174.835V57.4089H165.085V44.9604H165.081Z" fill="#F58025"/>
<path d="M198.96 53.6726C199.278 54.0244 199.544 54.3075 200.161 54.6421C200.989 55.0839 201.839 55.2426 202.559 55.2426C203.795 55.2426 204.85 54.6592 204.85 53.797C204.85 52.8104 203.597 52.6517 202.679 52.5273C201.993 52.4372 201.302 52.3514 200.633 52.2098C199.874 52.0511 197.283 51.5063 197.283 48.8253C197.283 45.6167 200.14 44.6644 202.289 44.6644C205.163 44.6644 206.716 46.0585 207.793 47.028L205.502 48.6666C205.116 48.2805 204.76 47.9459 204.267 47.6628C203.825 47.414 203.031 47.118 202.238 47.118C201.002 47.118 200.384 47.8215 200.384 48.4221C200.384 49.3744 201.444 49.5159 201.972 49.5846C203.293 49.7433 205.077 50.0779 205.781 50.3267C207.209 50.8543 207.93 51.9653 207.93 53.3766C207.93 54.2775 207.595 55.2641 206.943 56.0233C205.815 57.3274 204.018 57.6963 202.272 57.6963C198.763 57.6963 197.369 56.0748 196.592 55.174L198.956 53.6769L198.96 53.6726Z" fill="#F58025"/>
<path d="M40.0548 19.4928C40.0548 28.767 34.6155 39.3367 20.2624 39.3367C5.90922 39.3367 0.778809 28.2479 0.778809 19.9046C0.778809 9.43786 7.25617 0.219421 20.4683 0.219421C34.9244 0.219421 40.0548 10.7891 40.0548 19.4928ZM12.3866 19.8574C12.3866 26.2275 14.9775 30.0625 20.4726 30.0625C25.1354 30.0625 28.3998 26.3862 28.3998 19.4928C28.3998 17.7297 28.2454 16.1254 27.7263 14.6755C25.9633 9.59658 21.5064 9.44215 20.4726 9.44215C16.3288 9.44215 12.3866 12.2905 12.3866 19.8574Z" fill="#231F20"/>
<path d="M39.6944 1.51059H57.934C61.4043 1.51059 64.7202 1.71649 66.9508 2.65163C71.8238 4.72353 73.2737 9.69951 73.2737 13.2213C73.2737 14.6197 73.115 17.8842 70.4769 20.578C69.027 22.1309 67.4699 22.7057 65.7626 23.3792L74.6722 38.1484H61.8204L54.721 25.2452H51.3022V38.1484H39.6944V1.51059ZM51.3022 9.18047V17.7297H56.1195C58.0369 17.7297 61.7175 17.6268 61.7175 13.483C61.7175 9.33919 58.0927 9.18476 56.068 9.18476H51.3022V9.18047Z" fill="#231F20"/>
<path d="M82.3592 1.56207H95.5198L109.2 38.1484H96.7638L95.1552 33.0695H82.4107L80.8064 38.1484H68.3707L82.3592 1.56207ZM88.888 11.9773L84.8987 24.8806H92.7745L88.888 11.9773Z" fill="#231F20"/>
<path d="M107.947 1.56207H120.228L128.469 15.4005C130.489 19.1796 131.06 20.2692 132.926 24.3615C132.617 20.784 132.561 20.0118 132.458 15.9152V1.56207H143.289V38.1484H130.854L123.445 25.5069C121.322 21.8821 120.7 20.7411 118.366 15.868C118.628 19.1839 118.68 20.0118 118.731 23.3277V38.1484H107.951V1.56207H107.947Z" fill="#231F20"/>
<path d="M180.485 1.56207H209.448V9.59657H192.093V15.0358H208.312V22.9631H192.093V30.2169H209.929V38.1441H180.485V1.56207Z" fill="#231F20"/>
<path d="M171.893 28.5782C171.185 32.1644 171.893 38.0927 160.907 39.075C158.174 39.3195 155.879 38.5559 154.013 37.7795C150.543 36.3768 142.925 31.4566 142.925 20.059C142.925 9.54081 149.711 0.0606995 162.46 0.0606995C167.955 0.0606995 173.6 1.97817 177.229 5.55144C179.404 7.67481 180.129 9.64376 180.751 11.3553L170.387 14.2551C170.13 13.1141 169.868 11.8701 168.731 10.7333C167.642 9.64376 165.776 8.81586 163.339 8.81586C160.594 8.81586 158.676 9.85395 157.535 10.9392C154.687 13.5816 154.687 17.9356 154.687 19.5914C154.687 21.7663 154.841 25.2924 157.432 27.9348C159.71 30.3155 162.408 30.3713 163.652 30.3713C164.686 30.3713 167.333 30.2684 169.143 28.4024C170.13 27.3643 170.284 26.3819 170.541 25.2409H163.755V17.8842H180.545V38.0927H171.893V28.5782Z" fill="#F58025"/>
<path d="M214.442 2.77603C215.986 2.77603 217.217 4.02432 217.217 5.59004C217.217 7.15576 215.982 8.41262 214.442 8.41262C212.902 8.41262 211.705 7.17291 211.705 5.59004C211.705 4.00716 212.932 2.77603 214.442 2.77603ZM214.442 7.99653C215.758 7.99653 216.767 6.94985 216.767 5.59004C216.767 4.23022 215.758 3.19213 214.442 3.19213C213.125 3.19213 212.159 4.24738 212.159 5.59004C212.159 6.93269 213.15 7.99653 214.442 7.99653ZM213.528 4.08008H214.605C215.141 4.08008 215.514 4.43612 215.514 4.98091C215.514 5.43132 215.227 5.71015 214.948 5.77878V5.79594C214.948 5.79594 214.978 5.83455 215.051 5.96753L215.634 7.10857H215.154L214.549 5.88173H213.965V7.10857H213.532V4.08437L213.528 4.08008ZM214.527 5.53856C214.853 5.53856 215.064 5.32837 215.064 4.98091C215.064 4.63345 214.853 4.4447 214.527 4.4447H213.961V5.53856H214.527Z" fill="#231F20"/>
</g>
<defs>
<clipPath id="clip0_373_10">
<rect width="216.442" height="57.7" fill="white" transform="translate(0.778809 0.0606995)"/>
</clipPath>
</defs>
</svg>
