<svg width="30" height="30" viewBox="0 0 30 30" fill="none" xmlns="http://www.w3.org/2000/svg">
<path fill-rule="evenodd" clip-rule="evenodd" d="M21.9391 25.6268C19.9232 26.9499 17.5115 27.7195 14.9201 27.7195C12.3287 27.7195 9.91702 26.9499 7.90115 25.6269C7.90219 25.6082 7.90272 25.5895 7.90272 25.5706C7.90272 22.6879 10.8391 20.035 14.9201 20.035C18.9995 20.035 21.9375 22.702 21.9375 25.5706C21.9375 25.5895 21.9381 25.6082 21.9391 25.6268ZM23.7725 24.1682C22.9757 20.5722 19.1676 18.0475 14.9201 18.0475C10.6727 18.0475 6.86231 20.5607 6.06703 24.1675C3.62945 21.8356 2.11133 18.5504 2.11133 14.9107C2.11133 7.83659 7.84602 2.1019 14.9201 2.1019C21.9942 2.1019 27.7289 7.83659 27.7289 14.9107C27.7289 18.5508 26.2105 21.8362 23.7725 24.1682ZM29.7165 14.9107C29.7165 23.0825 23.0919 29.707 14.9201 29.707C6.74833 29.707 0.123779 23.0825 0.123779 14.9107C0.123779 6.7389 6.74833 0.114349 14.9201 0.114349C23.0919 0.114349 29.7165 6.7389 29.7165 14.9107ZM14.9201 5.91493C13.5062 5.91493 12.1502 6.47662 11.1504 7.47642C10.1506 8.47622 9.58889 9.83224 9.58889 11.2462C9.58889 12.6601 10.1506 14.0161 11.1504 15.0159C12.1502 16.0157 13.5062 16.5774 14.9201 16.5774C16.3341 16.5774 17.6901 16.0157 18.6899 15.0159C19.6897 14.0161 20.2514 12.6601 20.2514 11.2462C20.2514 9.83224 19.6897 8.47622 18.6899 7.47642C17.6901 6.47662 16.3341 5.91493 14.9201 5.91493ZM12.5558 8.88183C13.1828 8.25477 14.0333 7.90249 14.9201 7.90249C15.8069 7.90249 16.6574 8.25477 17.2845 8.88183C17.9115 9.50889 18.2638 10.3594 18.2638 11.2462C18.2638 12.133 17.9115 12.9835 17.2845 13.6105C16.6574 14.2376 15.8069 14.5899 14.9201 14.5899C14.0333 14.5899 13.1828 14.2376 12.5558 13.6105C11.9287 12.9835 11.5764 12.133 11.5764 11.2462C11.5764 10.3594 11.9287 9.50889 12.5558 8.88183Z" fill="black"/>
</svg>
